#!OML:ASF H:\Terrain\Walking\May29\JustinRory\Justin.ASF
:FULLY-SPECIFIED
:DEGREES
276
root 12.9252 17.6357 9.30791 -340.129 -51.5826 -4.42194
lowerback 21.3188 0.245995 -0.944036
upperback 8.25864 -0.0632554 2.78585
thorax -2.92614 -0.229605 3.54086
lowerneck -15.0288 -8.14927 -13.7358
upperneck 21.8053 -9.77232 7.36919
head 10.5443 -4.83427 3.5032
rclavicle 2.04748e-014 4.41302e-014
rhumerus -83.416 -51.6814 41.6061
rradius 31.3474
rwrist -46.9704
rhand 276.873 47.1144
rfingers 7.12502
rthumb 58.7815 -244.416
lclavicle 2.04748e-014 4.41302e-014
lhumerus -35.6747 19.9872 63.118
lradius 40.483
lwrist -0.672401
lhand -5.36772 33.2061
lfingers 7.12502
lthumb 20.4401 62.1502
rfemur -25.5785 -4.98887 18.7344
rtibia 46.7604
rfoot -23.0035 6.59989
rtoes -21.7237
lfemur -49.8134 14.9025 -21.604
ltibia 49.8296
lfoot 8.68046 -29.3653
ltoes 7.71483
277
root 12.9057 17.6369 9.3778 -341.517 -51.2374 -2.72465
lowerback 21.3542 0.25229 -1.44528
upperback 8.41958 -0.167191 2.54469
thorax -2.76175 -0.289101 3.59149
lowerneck -14.9028 -8.05705 -13.4979
upperneck 21.4266 -9.63927 7.15928
head 10.3418 -4.77539 3.41255
rclavicle -1.63003e-014 3.75703e-014
rhumerus -82.8179 -50.8486 40.5058
rradius 31.5988
rwrist -48.4213
rhand 276.948 48.9408
rfingers 7.12502
rthumb 58.9392 -242.465
lclavicle -1.63003e-014 3.75703e-014
lhumerus -35.7316 20.0998 62.8651
lradius 40.4795
lwrist -0.572871
lhand -5.45516 33.3009
lfingers 7.12502
lthumb 20.356 62.254
rfemur -25.5586 -3.52452 18.1155
rtibia 44.3656
rfoot -23.7214 7.03397
rtoes -20.4966
lfemur -50.0732 15.0117 -22.3996
ltibia 50.5463
lfoot 9.6508 -28.3956
ltoes -1.46305
278
root 12.8875 17.6224 9.4522 -342.106 -50.6502 -1.98576
lowerback 21.255 0.177446 -1.36518
upperback 8.59279 -0.250665 2.61672
thorax -2.51805 -0.336792 3.63877
lowerneck -14.6721 -8.03434 -13.9164
upperneck 20.9864 -9.55034 7.34712
head 10.1641 -4.74766 3.56486
rclavicle 7.25564e-014 -2.34566e-014
rhumerus -82.3894 -50.2618 40.0202
rradius 31.8179
rwrist -49.6019
rhand 277.236 50.7892
rfingers 7.12502
rthumb 59.129 -240.702
lclavicle 7.25564e-014 -2.34566e-014
lhumerus -35.9153 20.1835 62.8817
lradius 40.5283
lwrist -0.463422
lhand -5.80737 33.1595
lfingers 7.12502
lthumb 20.0175 62.1484
rfemur -25.419 -2.3425 18.1748
rtibia 41.9677
rfoot -24.4859 6.81702
rtoes -18.2013
lfemur -50.5655 15.2989 -22.6412
ltibia 51.5011
lfoot 9.50178 -27.3052
ltoes -7.68955
279
root 12.8709 17.5949 9.52332 -342.296 -50.0507 -1.96337
lowerback 21.3499 0.110947 -0.877921
upperback 8.72203 -0.244942 2.74274
thorax -2.42857 -0.331634 3.49419
lowerneck -14.3956 -8.00479 -14.3634
upperneck 20.6866 -9.49378 7.6543
head 10.04 -4.72715 3.76113
rclavicle -6.22196e-014 2.40529e-014
rhumerus -82.2489 -49.4999 39.6742
rradius 32.1129
rwrist -50.7069
rhand 278.235 52.5465
rfingers 7.12502
rthumb 59.2181 -239.654
lclavicle -6.22196e-014 2.40529e-014
lhumerus -36.2307 20.0704 62.8006
lradius 40.6745
lwrist -0.494192
lhand -5.97922 33.1442
lfingers 7.12502
lthumb 19.8523 62.1503
rfemur -24.9978 -1.35618 18.691
rtibia 39.8546
rfoot -25.0835 4.89347
rtoes -13.2589
lfemur -51.0058 15.7435 -22.3129
ltibia 52.6862
lfoot 6.48767 -26.5199
ltoes -12.818
280
root 12.8564 17.572 9.60428 -343.545 -49.6527 -0.72859
lowerback 21.5589 0.0792275 -0.968517
upperback 8.77512 -0.312982 2.48842
thorax -2.47359 -0.361167 3.29111
lowerneck -14.227 -7.99387 -14.2693
upperneck 20.6682 -9.52934 7.67093
head 10.0015 -4.73845 3.75159
rclavicle -2.10712e-014 -1.86858e-014
rhumerus -82.1134 -48.2921 38.8246
rradius 32.6295
rwrist -51.9534
rhand 279.584 54.2622
rfingers 7.12502
rthumb 59.2078 -238.834
lclavicle -2.10712e-014 -1.86858e-014
lhumerus -36.5403 19.6685 62.437
lradius 40.7446
lwrist -0.467066
lhand -5.6183 33.5195
lfingers 7.12502
lthumb 20.1993 62.4893
rfemur -24.2143 -1.35211 18.3429
rtibia 38.2413
rfoot -25.7742 1.27778
rtoes -10.218
lfemur -51.0778 15.983 -22.7377
ltibia 53.9069
lfoot 3.1118 -24.3929
ltoes -13.7148
281
root 12.8388 17.5554 9.68871 -344.604 -49.3664 0.328486
lowerback 21.5562 0.0800559 -1.09859
upperback 8.8436 -0.344924 2.30277
thorax -2.39707 -0.376714 3.17247
lowerneck -14.1412 -8.06814 -14.2089
upperneck 20.7929 -9.63592 7.53486
head 10.0328 -4.79991 3.67997
rclavicle -1.98785e-015 1.78906e-014
rhumerus -82.1737 -47.4422 38.7342
rradius 32.7941
rwrist -52.5885
rhand 279.848 56.0394
rfingers 7.12502
rthumb 59.3952 -236.939
lclavicle -1.98785e-015 1.78906e-014
lhumerus -36.8351 19.5475 61.9714
lradius 40.5999
lwrist -0.579319
lhand -5.19579 33.5806
lfingers 7.12502
lthumb 20.6053 62.507
rfemur -23.2721 -1.97439 18.1652
rtibia 37.1378
rfoot -26.2679 -2.27699
rtoes -9.53524
lfemur -51.0799 16.2059 -22.9545
ltibia 55.0313
lfoot -0.566452 -21.6735
ltoes -17.1751
282
root 12.8172 17.5423 9.76515 -344.926 -49.1569 0.504469
lowerback 21.3794 0.119843 -0.895051
upperback 8.94375 -0.259473 2.26556
thorax -2.20718 -0.333147 2.99273
lowerneck -13.869 -8.14047 -14.3348
upperneck 20.7806 -9.7775 7.66054
head 10.0089 -4.86806 3.7311
rclavicle 7.55382e-015 -3.57812e-014
rhumerus -82.0308 -46.7511 38.5846
rradius 32.8459
rwrist -53.7079
rhand 280.013 57.8445
rfingers 7.12502
rthumb 59.8784 -234.973
lclavicle 7.55382e-015 -3.57812e-014
lhumerus -37.1227 19.4323 61.5209
lradius 40.4573
lwrist -0.633806
lhand -5.03542 33.3826
lfingers 7.12502
lthumb 20.7594 62.2922
rfemur -22.2472 -2.18689 18.4409
rtibia 36.3952
rfoot -26.6257 -4.03732
rtoes -6.56611
lfemur -51.1699 16.5449 -22.4382
ltibia 55.9667
lfoot -5.05624 -19.46
ltoes -24.4371
283
root 12.8012 17.5409 9.83844 -345.093 -49.0706 0.611778
lowerback 21.1319 0.111495 -0.633195
upperback 9.0062 -0.229102 2.07821
thorax -2.02052 -0.310127 2.63142
lowerneck -13.5947 -8.0857 -14.0949
upperneck 20.7044 -9.83329 7.82388
head 9.93077 -4.86539 3.75119
rclavicle -3.1408e-014 1.31198e-014
rhumerus -81.7926 -46.1482 37.9885
rradius 33.0506
rwrist -55.025
rhand 280.402 59.6692
rfingers 7.12502
rthumb 60.3673 -233.094
lclavicle -3.1408e-014 1.31198e-014
lhumerus -37.5424 19.4848 60.7653
lradius 40.4592
lwrist -0.525984
lhand -4.94539 33.3363
lfingers 7.12502
lthumb 20.8459 62.2364
rfemur -21.3011 -1.70232 18.3988
rtibia 35.806
rfoot -27.1228 -4.876
rtoes -4.57302
lfemur -51.3173 16.8414 -21.7756
ltibia 56.6603
lfoot -8.29607 -17.6064
ltoes -25.2403
284
root 12.7904 17.5332 9.90811 -345.122 -49.1483 0.573675
lowerback 21.0235 0.147849 -0.384722
upperback 8.95251 -0.13841 1.91162
thorax -2.03079 -0.254028 2.29047
lowerneck -13.5684 -8.06179 -13.9614
upperneck 21.059 -9.90084 7.9826
head 10.0604 -4.87501 3.7801
rclavicle -2.3059e-014 3.57812e-015
rhumerus -82.0645 -45.899 38.4342
rradius 32.9805
rwrist -54.9909
rhand 280.635 61.4772
rfingers 7.12502
rthumb 60.6239 -230.983
lclavicle -2.3059e-014 3.57812e-015
lhumerus -38.2845 19.924 59.8077
lradius 40.4822
lwrist -0.833139
lhand -4.86497 33.1729
lfingers 7.12502
lthumb 20.9231 62.0645
rfemur -20.5981 -0.826999 18.2024
rtibia 35.2139
rfoot -27.0902 -6.05241
rtoes -6.65285
lfemur -51.4581 17.1999 -20.9338
ltibia 57.1702
lfoot -10.4636 -16.2217
ltoes -20.7237
285
root 12.7828 17.5148 9.98463 -345.545 -49.3565 0.895652
lowerback 21.1699 0.315246 -0.414827
upperback 8.83493 0.0736905 1.81352
thorax -2.2409 -0.144339 2.15764
lowerneck -13.7286 -8.19533 -14.1394
upperneck 21.7726 -10.0851 8.01311
head 10.3833 -4.97287 3.79138
rclavicle 8.11041e-014 -7.79236e-014
rhumerus -82.6102 -45.7385 39.7136
rradius 32.8125
rwrist -54.5673
rhand 280.647 63.3394
rfingers 7.12502
rthumb 60.921 -228.596
lclavicle 8.11041e-014 -7.79236e-014
lhumerus -39.1679 20.3935 59.0968
lradius 40.4748
lwrist -1.5833
lhand -4.87227 32.8682
lfingers 7.12502
lthumb 20.9161 61.7606
rfemur -20.0293 -0.455313 17.6575
rtibia 34.6323
rfoot -26.2221 -6.53696
rtoes -9.16683
lfemur -51.3158 17.474 -20.251
ltibia 57.4808
lfoot -12.409 -15.1444
ltoes -22.8461
